<svg display="none" xmlns="http://www.w3.org/2000/svg">
  <symbol id="apple" viewBox="0 0 19 24">
    <path d="M9.624 7.22198C8.748 7.22198 7.392 6.22598 5.964 6.26198C4.08 6.28598 2.352 7.35397 1.38 9.04597C-0.575999 12.442 0.876 17.458 2.784 20.218C3.72 21.562 4.824 23.074 6.288 23.026C7.692 22.966 8.22 22.114 9.924 22.114C11.616 22.114 12.096 23.026 13.584 22.99C15.096 22.966 16.056 21.622 16.98 20.266C18.048 18.706 18.492 17.194 18.516 17.11C18.48 17.098 15.576 15.982 15.54 12.622C15.516 9.81397 17.832 8.46998 17.94 8.40998C16.62 6.47798 14.592 6.26198 13.884 6.21398C12.036 6.06998 10.488 7.22198 9.624 7.22198ZM12.744 4.38998C13.524 3.45398 14.04 2.14598 13.896 0.849976C12.78 0.897976 11.436 1.59398 10.632 2.52998C9.912 3.35798 9.288 4.68998 9.456 5.96198C10.692 6.05798 11.964 5.32598 12.744 4.38998Z" fill="white" />
  </symbol>
</svg>