<svg display="none" xmlns="http://www.w3.org/2000/svg">
  <symbol id="bug" viewBox="0 0 27 30">
    <path d="M3.39375 20.3333C3.32521 19.8502 3.2911 19.3629 3.29167 18.8749V17.4166H0.375V14.4999H3.29167V13.0416C3.29167 12.5458 3.32667 12.0601 3.39375 11.5833H0.375V8.6666H4.27458C5.1685 6.78756 6.61304 5.22502 8.41625 4.1866L6.885 2.65535L8.95 0.594727L11.4044 3.05056C12.7875 2.76153 14.2154 2.76153 15.5985 3.05056L18.0529 0.594727L20.1165 2.65827L18.5852 4.18952C20.3874 5.2274 21.8314 6.78885 22.7254 8.6666H26.625V11.5833H23.6063C23.6733 12.0601 23.7083 12.5458 23.7083 13.0416V14.4999H26.625V17.4166H23.7083V18.8749C23.7083 19.3708 23.6733 19.8564 23.6063 20.3333H26.625V23.2499H22.7254C21.898 24.9965 20.5918 26.4723 18.9587 27.5057C17.3255 28.5391 15.4326 29.0877 13.5 29.0877C11.5674 29.0877 9.67446 28.5391 8.04134 27.5057C6.40822 26.4723 5.10201 24.9965 4.27458 23.2499H0.375V20.3333H3.39375ZM9.125 11.5833V14.4999H17.875V11.5833H9.125ZM9.125 17.4166V20.3333H17.875V17.4166H9.125Z" fill="white" />
  </symbol>
</svg>