<svg display="none" xmlns="http://www.w3.org/2000/svg">
  <symbol id="closeEye" viewBox="0 0 25 14">
    <path d="M9.43043 14L7.20043 13.4042L8.10929 10.0238C6.74886 9.52411 5.48448 8.79585 4.37107 7.87069L1.8847 10.3482L0.250601 8.72067L2.73813 6.24433C1.33393 4.56939 0.390438 2.56003 0 0.412915L2.27273 0C3.14925 4.83306 7.39445 8.49984 12.5 8.49984C17.6044 8.49984 21.8507 4.83306 22.7273 0L25 0.411765C24.6101 2.55917 23.667 4.56894 22.263 6.24433L24.7494 8.72067L23.1153 10.3482L20.6289 7.87069C19.5155 8.79585 18.2511 9.52411 16.8907 10.0238L17.7996 13.4054L15.5696 14L14.6596 10.6185C13.2303 10.8624 11.7697 10.8624 10.3404 10.6185L9.43043 14Z" />
  </symbol>
</svg>