<svg display="none" xmlns="http://www.w3.org/2000/svg">
  <symbol id="codeBox" viewBox="0 0 31 27">
    <path d="M2.375 0.375H28.625C29.0118 0.375 29.3827 0.528645 29.6562 0.802136C29.9297 1.07563 30.0833 1.44656 30.0833 1.83333V25.1667C30.0833 25.5534 29.9297 25.9244 29.6562 26.1979C29.3827 26.4714 29.0118 26.625 28.625 26.625H2.375C1.98823 26.625 1.61729 26.4714 1.3438 26.1979C1.07031 25.9244 0.916668 25.5534 0.916668 25.1667V1.83333C0.916668 1.44656 1.07031 1.07563 1.3438 0.802136C1.61729 0.528645 1.98823 0.375 2.375 0.375ZM22.01 18.6567L27.1667 13.5L22.01 8.34333L19.9479 10.4083L23.0425 13.5L19.9479 16.5931L22.01 18.6567ZM7.9575 13.5L11.0521 10.4069L8.99 8.34333L3.83333 13.5L8.99 18.6567L11.0521 16.5917L7.9575 13.5ZM14.3975 20.7917L19.7058 6.20833H16.6025L11.2942 20.7917H14.3975Z" fill="white" />
  </symbol>
</svg>