<svg display="none" xmlns="http://www.w3.org/2000/svg">
  <symbol id="commandLine" viewBox="0 0 35 35">
    <path d="M13.75 10H21.25V7.1875C21.25 5.88956 21.6349 4.62077 22.356 3.54157C23.0771 2.46238 24.102 1.62124 25.3011 1.12454C26.5003 0.627843 27.8198 0.497884 29.0928 0.7511C30.3658 1.00432 31.5351 1.62933 32.4529 2.54712C33.3707 3.4649 33.9957 4.63422 34.2489 5.90722C34.5021 7.18022 34.3722 8.49972 33.8755 9.69886C33.3788 10.898 32.5376 11.9229 31.4584 12.644C30.3792 13.3651 29.1104 13.75 27.8125 13.75H25V21.25H27.8125C29.1104 21.25 30.3792 21.6349 31.4584 22.356C32.5376 23.0771 33.3788 24.102 33.8755 25.3011C34.3722 26.5003 34.5021 27.8198 34.2489 29.0928C33.9957 30.3658 33.3707 31.5351 32.4529 32.4529C31.5351 33.3707 30.3658 33.9957 29.0928 34.2489C27.8198 34.5021 26.5003 34.3722 25.3011 33.8755C24.102 33.3788 23.0771 32.5376 22.356 31.4584C21.6349 30.3792 21.25 29.1104 21.25 27.8125V25H13.75V27.8125C13.75 29.1104 13.3651 30.3792 12.644 31.4584C11.9229 32.5376 10.898 33.3788 9.69886 33.8755C8.49972 34.3722 7.18022 34.5021 5.90722 34.2489C4.63422 33.9957 3.4649 33.3707 2.54712 32.4529C1.62933 31.5351 1.00432 30.3658 0.7511 29.0928C0.497884 27.8198 0.627843 26.5003 1.12454 25.3011C1.62124 24.102 2.46238 23.0771 3.54157 22.356C4.62077 21.6349 5.88956 21.25 7.1875 21.25H10V13.75H7.1875C5.88956 13.75 4.62077 13.3651 3.54157 12.644C2.46238 11.9229 1.62124 10.898 1.12454 9.69886C0.627843 8.49972 0.497884 7.18022 0.7511 5.90722C1.00432 4.63422 1.62933 3.4649 2.54712 2.54712C3.4649 1.62933 4.63422 1.00432 5.90722 0.7511C7.18022 0.497884 8.49972 0.627843 9.69886 1.12454C10.898 1.62124 11.9229 2.46238 12.644 3.54157C13.3651 4.62077 13.75 5.88956 13.75 7.1875V10ZM10 10V7.1875C10 6.63124 9.83505 6.08747 9.52601 5.62496C9.21697 5.16245 8.77772 4.80196 8.2638 4.58909C7.74988 4.37622 7.18438 4.32052 6.63881 4.42904C6.09324 4.53757 5.5921 4.80543 5.19876 5.19876C4.80543 5.5921 4.53757 6.09324 4.42904 6.63881C4.32052 7.18438 4.37622 7.74988 4.58909 8.2638C4.80196 8.77772 5.16245 9.21697 5.62496 9.52601C6.08747 9.83505 6.63124 10 7.1875 10H10ZM10 25H7.1875C6.63124 25 6.08747 25.165 5.62496 25.474C5.16245 25.783 4.80196 26.2223 4.58909 26.7362C4.37622 27.2501 4.32052 27.8156 4.42904 28.3612C4.53757 28.9068 4.80543 29.4079 5.19876 29.8012C5.5921 30.1946 6.09324 30.4624 6.63881 30.571C7.18438 30.6795 7.74988 30.6238 8.2638 30.4109C8.77772 30.198 9.21697 29.8376 9.52601 29.375C9.83505 28.9125 10 28.3688 10 27.8125V25ZM25 10H27.8125C28.3688 10 28.9125 9.83505 29.375 9.52601C29.8376 9.21697 30.198 8.77772 30.4109 8.2638C30.6238 7.74988 30.6795 7.18438 30.571 6.63881C30.4624 6.09324 30.1946 5.5921 29.8012 5.19876C29.4079 4.80543 28.9068 4.53757 28.3612 4.42904C27.8156 4.32052 27.2501 4.37622 26.7362 4.58909C26.2223 4.80196 25.783 5.16245 25.474 5.62496C25.165 6.08747 25 6.63124 25 7.1875V10ZM25 25V27.8125C25 28.3688 25.165 28.9125 25.474 29.375C25.783 29.8376 26.2223 30.198 26.7362 30.4109C27.2501 30.6238 27.8156 30.6795 28.3612 30.571C28.9068 30.4624 29.4079 30.1946 29.8012 29.8012C30.1946 29.4079 30.4624 28.9068 30.571 28.3612C30.6795 27.8156 30.6238 27.2501 30.4109 26.7362C30.198 26.2223 29.8376 25.783 29.375 25.474C28.9125 25.165 28.3688 25 27.8125 25H25ZM13.75 13.75V21.25H21.25V13.75H13.75Z" fill="white" />
  </symbol>
</svg>