<svg display="none" xmlns="http://www.w3.org/2000/svg">
  <symbol id="copyright" viewBox="0 0 12 12">
    <path d="M6.00008 0.166748C9.22008 0.166748 11.8334 2.78008 11.8334 6.00008C11.8334 9.22008 9.22008 11.8334 6.00008 11.8334C2.78008 11.8334 0.166748 9.22008 0.166748 6.00008C0.166748 2.78008 2.78008 0.166748 6.00008 0.166748ZM6.00008 3.08342C4.39008 3.08342 3.08342 4.39008 3.08342 6.00008C3.08342 7.61008 4.39008 8.91675 6.00008 8.91675C7.06175 8.91675 7.991 8.34916 8.50142 7.50041L7.501 6.90075C7.34356 7.16303 7.12012 7.37946 6.85295 7.52846C6.58579 7.67746 6.28423 7.75382 5.97835 7.74994C5.67247 7.74606 5.37295 7.66206 5.10965 7.50633C4.84635 7.35059 4.62848 7.12856 4.47775 6.86236C4.32702 6.59617 4.2487 6.29511 4.2506 5.98921C4.2525 5.68331 4.33455 5.38326 4.48857 5.11895C4.6426 4.85465 4.86321 4.63534 5.12842 4.48289C5.39364 4.33044 5.69418 4.25017 6.00008 4.25008C6.63767 4.25008 7.19592 4.59075 7.50158 5.1L8.50142 4.49917C8.24226 4.06725 7.87564 3.70982 7.43729 3.46171C6.99893 3.2136 6.50378 3.08327 6.00008 3.08342Z" fill="#444754"/>
  </symbol>
</svg>