<svg display="none" xmlns="http://www.w3.org/2000/svg">
  <symbol id="date" fill="none" viewBox="0 0 20 20">
    <path d="M13.3334 1.66666V4.99999" stroke-linecap="round" stroke-linejoin="round" />
    <path d="M6.66667 1.66666V4.99999" stroke-linecap="round" stroke-linejoin="round" />
    <path d="M2.5 7.50001H17.5" stroke-linecap="round" stroke-linejoin="round" />
    <path fill-rule="evenodd" clip-rule="evenodd" d="M15.8333 3.33334H4.16667C3.24583 3.33334 2.5 4.07918 2.5 5.00001V15.8333C2.5 16.7542 3.24583 17.5 4.16667 17.5H15.8333C16.7542 17.5 17.5 16.7542 17.5 15.8333V5.00001C17.5 4.07918 16.7542 3.33334 15.8333 3.33334Z" stroke-linecap="round" stroke-linejoin="round" />
    <path d="M5.84406 10.6075C5.72906 10.6075 5.63573 10.7008 5.63656 10.8158C5.63656 10.9308 5.72989 11.0242 5.84489 11.0242C5.95989 11.0242 6.05323 10.9308 6.05323 10.8158C6.05323 10.7008 5.95989 10.6075 5.84406 10.6075" stroke-linecap="round" stroke-linejoin="round" />
    <path d="M10.0108 10.6075C9.89581 10.6075 9.80247 10.7008 9.80331 10.8158C9.80331 10.9308 9.89664 11.0242 10.0116 11.0242C10.1266 11.0242 10.22 10.9308 10.22 10.8158C10.22 10.7008 10.1266 10.6075 10.0108 10.6075" stroke-linecap="round" stroke-linejoin="round" />
    <path d="M14.1776 10.6075C14.0626 10.6075 13.9692 10.7008 13.9701 10.8158C13.9701 10.9308 14.0634 11.0242 14.1784 11.0242C14.2934 11.0242 14.3867 10.9308 14.3867 10.8158C14.3867 10.7008 14.2934 10.6075 14.1776 10.6075" stroke-linecap="round" stroke-linejoin="round" />
    <path d="M5.84406 13.9408C5.72906 13.9408 5.63573 14.0342 5.63656 14.1492C5.63656 14.2642 5.72989 14.3575 5.84489 14.3575C5.95989 14.3575 6.05323 14.2642 6.05323 14.1492C6.05323 14.0342 5.95989 13.9408 5.84406 13.9408" stroke-linecap="round" stroke-linejoin="round" />
    <path d="M10.0108 13.9408C9.89581 13.9408 9.80247 14.0342 9.80331 14.1492C9.80331 14.2642 9.89664 14.3575 10.0116 14.3575C10.1266 14.3575 10.22 14.2642 10.22 14.1492C10.22 14.0342 10.1266 13.9408 10.0108 13.9408" stroke-linecap="round" stroke-linejoin="round" />
  </symbol>
</svg>