<svg display="none" xmlns="http://www.w3.org/2000/svg">
  <symbol id="fire" viewBox="0 0 28 28">
    <path d="M14.3309 26.135C12.6514 26.1349 11.0106 25.6302 9.62129 24.6863C8.23202 23.7425 7.15834 22.403 6.53947 20.8416C5.9206 19.2802 5.78507 17.5689 6.15048 15.9296C6.51588 14.2902 7.36535 12.7985 8.58875 11.6477C10.0886 10.2362 13.7721 7.69477 13.2133 2.10681C19.9189 6.57718 23.2717 11.0475 16.5661 17.7531C17.6837 17.7531 19.3601 17.7531 22.1541 14.9926C22.4558 15.8565 22.7129 16.7853 22.7129 17.7531C22.7129 19.9761 21.8298 22.1081 20.2579 23.68C18.6859 25.2519 16.554 26.135 14.3309 26.135Z" fill="white" />
  </symbol>
</svg>