<svg display="none" xmlns="http://www.w3.org/2000/svg">
  <symbol id="gitMerge" viewBox="0 0 19 18">
    <path d="M5.105 5.78995C5.27846 6.42479 5.6558 6.985 6.17891 7.38434C6.70202 7.78367 7.34189 7.99998 8 7.99995H12C13.178 8.00004 14.3182 8.41598 15.2196 9.17446C16.1209 9.93294 16.7256 10.9853 16.927 12.1459C17.6057 12.3674 18.1832 12.8235 18.5559 13.4324C18.9286 14.0414 19.0719 14.7632 18.9603 15.4683C18.8486 16.1734 18.4892 16.8157 17.9467 17.2797C17.4041 17.7437 16.7139 17.999 16 17.9999C15.3015 18.0005 14.6248 17.7573 14.0864 17.3123C13.548 16.8673 13.1818 16.2484 13.0509 15.5623C12.9199 14.8763 13.0325 14.166 13.3691 13.554C13.7058 12.942 14.2454 12.4667 14.895 12.2099C14.7215 11.5751 14.3442 11.0149 13.8211 10.6156C13.298 10.2162 12.6581 9.99992 12 9.99995H8C6.91789 10.0015 5.86473 9.65049 5 8.99995V12.1699C5.66749 12.4059 6.23009 12.8701 6.58836 13.4808C6.94662 14.0914 7.07749 14.809 6.95781 15.5067C6.83814 16.2045 6.47563 16.8375 5.93437 17.2938C5.39311 17.7502 4.70795 18.0004 4 18.0004C3.29205 18.0004 2.60689 17.7502 2.06563 17.2938C1.52437 16.8375 1.16186 16.2045 1.04219 15.5067C0.922513 14.809 1.05337 14.0914 1.41164 13.4808C1.76991 12.8701 2.33251 12.4059 3 12.1699V5.82995C2.33698 5.59586 1.7772 5.13639 1.41835 4.53172C1.0595 3.92704 0.924371 3.21557 1.03653 2.52143C1.1487 1.8273 1.50103 1.19459 2.03206 0.733712C2.56308 0.272832 3.23908 0.0130464 3.94209 -0.00031241C4.6451 -0.0136712 5.33048 0.220245 5.87863 0.660618C6.42678 1.10099 6.8029 1.71986 6.94135 2.40923C7.0798 3.0986 6.9718 3.8147 6.63618 4.43256C6.30057 5.05043 5.75865 5.53084 5.105 5.78995Z" fill="white" />
  </symbol>
</svg>