<svg display="none" xmlns="http://www.w3.org/2000/svg">
  <symbol id="insta" viewBox="0 0 18 18">
    <path d="M9.00007 6.50008C8.33703 6.50008 7.70114 6.76347 7.2323 7.23231C6.76346 7.70116 6.50007 8.33704 6.50007 9.00008C6.50007 9.66312 6.76346 10.299 7.2323 10.7678C7.70114 11.2367 8.33703 11.5001 9.00007 11.5001C9.66311 11.5001 10.299 11.2367 10.7678 10.7678C11.2367 10.299 11.5001 9.66312 11.5001 9.00008C11.5001 8.33704 11.2367 7.70116 10.7678 7.23231C10.299 6.76347 9.66311 6.50008 9.00007 6.50008ZM9.00007 4.83342C10.1051 4.83342 11.1649 5.2724 11.9463 6.0538C12.7277 6.83521 13.1667 7.89501 13.1667 9.00008C13.1667 10.1052 12.7277 11.165 11.9463 11.9464C11.1649 12.7278 10.1051 13.1667 9.00007 13.1667C7.895 13.1667 6.83519 12.7278 6.05379 11.9464C5.27239 11.165 4.8334 10.1052 4.8334 9.00008C4.8334 7.89501 5.27239 6.83521 6.05379 6.0538C6.83519 5.2724 7.895 4.83342 9.00007 4.83342ZM14.4167 4.62508C14.4167 4.90135 14.307 5.1663 14.1116 5.36165C13.9163 5.557 13.6513 5.66675 13.3751 5.66675C13.0988 5.66675 12.8338 5.557 12.6385 5.36165C12.4431 5.1663 12.3334 4.90135 12.3334 4.62508C12.3334 4.34881 12.4431 4.08386 12.6385 3.88851C12.8338 3.69316 13.0988 3.58341 13.3751 3.58341C13.6513 3.58341 13.9163 3.69316 14.1116 3.88851C14.307 4.08386 14.4167 4.34881 14.4167 4.62508ZM9.00007 2.33341C6.9384 2.33341 6.60173 2.33925 5.64257 2.38175C4.98923 2.41258 4.5509 2.50008 4.14423 2.65841C3.78257 2.79841 3.52173 2.96591 3.24423 3.24425C2.98341 3.49625 2.78286 3.8039 2.65757 4.14425C2.49923 4.55258 2.41173 4.99008 2.38173 5.64258C2.3384 6.56258 2.3334 6.88425 2.3334 9.00008C2.3334 11.0617 2.33923 11.3984 2.38173 12.3576C2.41257 13.0101 2.50007 13.4492 2.65757 13.8551C2.79923 14.2176 2.9659 14.4784 3.24257 14.7551C3.5234 15.0351 3.78423 15.2026 4.14257 15.3409C4.55423 15.5001 4.99257 15.5884 5.64257 15.6184C6.56257 15.6617 6.88423 15.6667 9.00007 15.6667C11.0617 15.6667 11.3984 15.6609 12.3576 15.6184C13.0092 15.5876 13.4484 15.5001 13.8551 15.3426C14.2159 15.2017 14.4784 15.0342 14.7551 14.7576C15.0359 14.4767 15.2034 14.2159 15.3417 13.8576C15.5001 13.4467 15.5884 13.0076 15.6184 12.3576C15.6617 11.4376 15.6667 11.1159 15.6667 9.00008C15.6667 6.93842 15.6609 6.60175 15.6184 5.64258C15.5876 4.99092 15.5001 4.55091 15.3417 4.14425C15.2161 3.80425 15.016 3.49672 14.7559 3.24425C14.504 2.98329 14.1963 2.78272 13.8559 2.65758C13.4476 2.49925 13.0092 2.41175 12.3576 2.38175C11.4376 2.33841 11.1159 2.33341 9.00007 2.33341ZM9.00007 0.666748C11.2642 0.666748 11.5467 0.675081 12.4351 0.716748C13.3226 0.758415 13.9267 0.897581 14.4584 1.10425C15.0084 1.31591 15.4717 1.60258 15.9351 2.06508C16.3588 2.48166 16.6867 2.98557 16.8959 3.54175C17.1017 4.07258 17.2417 4.67758 17.2834 5.56508C17.3226 6.45341 17.3334 6.73592 17.3334 9.00008C17.3334 11.2642 17.3251 11.5467 17.2834 12.4351C17.2417 13.3226 17.1017 13.9267 16.8959 14.4584C16.6873 15.0149 16.3593 15.5189 15.9351 15.9351C15.5184 16.3587 15.0145 16.6865 14.4584 16.8959C13.9276 17.1017 13.3226 17.2417 12.4351 17.2834C11.5467 17.3226 11.2642 17.3334 9.00007 17.3334C6.7359 17.3334 6.4534 17.3251 5.56507 17.2834C4.67757 17.2417 4.0734 17.1017 3.54173 16.8959C2.98534 16.6871 2.48134 16.3592 2.06507 15.9351C1.64124 15.5186 1.31334 15.0146 1.10423 14.4584C0.897566 13.9276 0.758399 13.3226 0.716733 12.4351C0.677566 11.5467 0.666733 11.2642 0.666733 9.00008C0.666733 6.73592 0.675066 6.45341 0.716733 5.56508C0.758399 4.67675 0.897566 4.07341 1.10423 3.54175C1.31276 2.98523 1.64074 2.48118 2.06507 2.06508C2.48146 1.64111 2.98542 1.31319 3.54173 1.10425C4.0734 0.897581 4.67673 0.758415 5.56507 0.716748C6.4534 0.677581 6.7359 0.666748 9.00007 0.666748Z" />
  </symbol>
</svg>