<svg display="none" xmlns="http://www.w3.org/2000/svg">
  <symbol id="ipad" viewBox="0 0 801 868">
    <path fill-rule="evenodd" clip-rule="evenodd" d="M1002.78 865.367V866.143C1002.78 867 1002.09 867.695 1001.23 867.695H969.393C968.536 867.695 967.84 867 967.84 866.143V865.367H54.3512C24.3339 865.367 0 841.043 0 811.039V54.328C0 24.3235 24.3339 0 54.3512 0H1077.32C1107.34 0 1131.67 24.3235 1131.67 54.328V767.577H1132.45C1133.3 767.577 1134 768.271 1134 769.129V813.367C1134 814.224 1133.3 814.919 1132.45 814.919H1131.53C1129.54 843.113 1106.03 865.367 1077.32 865.367H1051.7V866.143C1051.7 867 1051 867.695 1050.14 867.695H1018.31C1017.45 867.695 1016.76 867 1016.76 866.143V865.367H1002.78Z" fill="white" />
    <path fill-rule="evenodd" clip-rule="evenodd" d="M1002.78 865.367V866.143C1002.78 867 1002.09 867.695 1001.23 867.695H969.393C968.536 867.695 967.84 867 967.84 866.143V865.367H54.3512C24.3339 865.367 0 841.043 0 811.039V54.328C0 24.3235 24.3339 0 54.3512 0H1077.32C1107.34 0 1131.67 24.3235 1131.67 54.328V767.577H1132.45C1133.3 767.577 1134 768.271 1134 769.129V813.367C1134 814.224 1133.3 814.919 1132.45 814.919H1131.53C1129.54 843.113 1106.03 865.367 1077.32 865.367H1051.7V866.143C1051.7 867 1051 867.695 1050.14 867.695H1018.31C1017.45 867.695 1016.76 867 1016.76 866.143V865.367H1002.78ZM55.5158 4.26879C27.2138 4.26879 4.27038 27.2023 4.27038 55.4923V809.875C4.27038 838.165 27.2138 861.098 55.5158 861.098H1076.15C1104.46 861.098 1127.4 838.165 1127.4 809.875V55.4923C1127.4 27.2023 1104.46 4.26879 1076.15 4.26879H55.5158ZM1110.32 437.34C1107.75 437.34 1105.66 435.255 1105.66 432.684C1105.66 430.112 1107.75 428.027 1110.32 428.027C1112.89 428.027 1114.98 430.112 1114.98 432.684C1114.98 435.255 1112.89 437.34 1110.32 437.34Z" fill="#EFF2F6" />
    <rect x="37.9176" y="37.0359" width="1058.16" height="793.624" rx="22.0451" stroke="#DFE4EA" stroke-width="1.76361" fill="none"/>
  </symbol>
</svg>