<svg display="none" xmlns="http://www.w3.org/2000/svg">
  <symbol id="iphone" viewBox="0 0 361 719">
    <path d="M358.234 250.844V644.394H352.148V649.925H358.234V663.201C358.234 693.749 333.463 718.513 302.905 718.513H58.0947C27.5376 718.513 2.76628 693.748 2.76628 663.201V649.925H8.85211V644.394H2.76628V266.884H1.10921C0.496612 266.884 0 266.389 0 265.781V215.441C0 214.831 0.494556 214.337 1.10921 214.337H2.76628V201.062H1.10921C0.496612 201.062 0 200.567 0 199.958V149.618C0 149.009 0.494556 148.515 1.10921 148.515H2.76628V125.837H1.10921C0.496612 125.837 0 125.343 0 124.731V98.1795C0 97.5689 0.494556 97.074 1.10921 97.074H2.76628V74.6723H8.85211V69.141H2.76628V55.3128C2.76628 24.7644 27.5371 0 58.0947 0H302.905C333.462 0 358.234 24.7654 358.234 55.3128V69.141H352.148V74.6723H358.234V165.109H359.617C360.381 165.109 361 165.726 361 166.49V249.462C361 250.225 360.379 250.844 359.617 250.844H358.234Z" fill="white" />
    <path fill-rule="evenodd" clip-rule="evenodd" d="M358.234 250.844V644.394H352.148V649.925H358.234V663.201C358.234 693.749 333.463 718.513 302.905 718.513H58.0947C27.5376 718.513 2.76628 693.748 2.76628 663.201V649.925H8.85211V644.394H2.76628V266.884H1.10921C0.496612 266.884 0 266.389 0 265.781V215.441C0 214.831 0.494556 214.337 1.10921 214.337H2.76628V201.062H1.10921C0.496612 201.062 0 200.567 0 199.958V149.618C0 149.009 0.494556 148.515 1.10921 148.515H2.76628V125.837H1.10921C0.496612 125.837 0 125.343 0 124.731V98.1795C0 97.5689 0.494556 97.074 1.10921 97.074H2.76628V74.6723H8.85211V69.141H2.76628V55.3128C2.76628 24.7644 27.5371 0 58.0947 0H302.905C333.462 0 358.234 24.7654 358.234 55.3128V69.141H352.148V74.6723H358.234V165.109H359.617C360.381 165.109 361 165.726 361 166.49V249.462C361 250.225 360.379 250.844 359.617 250.844H358.234ZM8.85175 55.8671V662.646C8.85175 690.141 31.1444 712.429 58.6438 712.429H302.356C329.854 712.429 352.148 690.14 352.148 662.646V55.8671C352.148 28.3718 329.855 6.08411 302.356 6.08411H58.6438C31.1448 6.08411 8.85175 28.3727 8.85175 55.8671ZM143.847 33.1875C142.013 33.1875 140.527 31.7017 140.527 29.8688C140.527 28.0359 142.013 26.55 143.847 26.55C145.68 26.55 147.166 28.0359 147.166 29.8688C147.166 31.7017 145.68 33.1875 143.847 33.1875ZM220.75 35.4001C217.694 35.4001 215.217 32.9237 215.217 29.8689C215.217 26.814 217.694 24.3376 220.75 24.3376C223.805 24.3376 226.282 26.814 226.282 29.8689C226.282 32.9237 223.805 35.4001 220.75 35.4001ZM162.105 27.656H199.173C200.395 27.656 201.386 28.6467 201.386 29.8685C201.386 31.0904 200.395 32.081 199.173 32.081H162.105C160.882 32.081 159.892 31.0904 159.892 29.8685C159.892 28.6467 160.882 27.656 162.105 27.656Z" fill="#EFF2F6" />
    <mask id="path-3-inside-1" fill="white">
      <path fill-rule="evenodd" clip-rule="evenodd" d="M88.7138 22.5941V22.6054C88.8051 22.5979 88.8975 22.5941 88.9907 22.5941C90.8261 22.5941 92.3133 24.0832 92.3133 25.9201V27.5799C92.3133 38.5966 101.252 47.523 112.278 47.523H248.722C259.747 47.523 268.687 38.5942 268.687 27.5799V22.5941H305.789C322.61 22.5941 336.246 36.2344 336.246 53.0628V666.87C336.246 683.697 322.611 697.338 305.789 697.338H55.2108C38.3901 697.338 24.7543 683.698 24.7543 666.87V53.0628C24.7543 36.2354 38.3892 22.5941 55.2108 22.5941H88.7138ZM272.287 22.6051V22.5938H268.688V26.1957V25.9197C268.688 24.0829 270.175 22.5938 272.01 22.5938C272.103 22.5938 272.196 22.5976 272.287 22.6051Z" />
    </mask>
    <path d="M88.7138 22.5941H90.7767V20.5312H88.7138V22.5941ZM88.7138 22.6054H86.651V24.8452L88.8833 24.6613L88.7138 22.6054ZM268.687 22.5941V20.5312H266.624V22.5941H268.687ZM272.287 22.5938H274.35V20.5309H272.287V22.5938ZM268.688 22.5938V20.5309H266.625V22.5938H268.688ZM86.651 22.5941V22.6054H90.7767V22.5941H86.651ZM88.8833 24.6613C88.9183 24.6584 88.9541 24.6569 88.9907 24.6569V20.5312C88.8409 20.5312 88.692 20.5374 88.5444 20.5495L88.8833 24.6613ZM88.9907 24.6569C89.6847 24.6569 90.2504 25.2203 90.2504 25.9201H94.3762C94.3762 22.946 91.9676 20.5312 88.9907 20.5312V24.6569ZM90.2504 25.9201V27.5799H94.3762V25.9201H90.2504ZM90.2504 27.5799C90.2504 39.7381 100.115 49.5859 112.278 49.5859V45.4602C102.389 45.4602 94.3762 37.4551 94.3762 27.5799H90.2504ZM112.278 49.5859H248.722V45.4602H112.278V49.5859ZM248.722 49.5859C260.884 49.5859 270.75 39.7356 270.75 27.5799H266.624C266.624 37.4528 258.61 45.4602 248.722 45.4602V49.5859ZM270.75 27.5799V22.5941H266.624V27.5799H270.75ZM268.687 24.6569H305.789V20.5312H268.687V24.6569ZM305.789 24.6569C321.47 24.6569 334.183 37.3729 334.183 53.0628H338.309C338.309 35.0958 323.75 20.5312 305.789 20.5312V24.6569ZM334.183 53.0628V666.87H338.309V53.0628H334.183ZM334.183 666.87C334.183 682.559 321.471 695.276 305.789 695.276V699.401C323.751 699.401 338.309 684.836 338.309 666.87H334.183ZM305.789 695.276H55.2108V699.401H305.789V695.276ZM55.2108 695.276C39.5301 695.276 26.8171 682.56 26.8171 666.87H22.6914C22.6914 684.837 37.2501 699.401 55.2108 699.401V695.276ZM26.8171 666.87V53.0628H22.6914V666.87H26.8171ZM26.8171 53.0628C26.8171 37.3739 39.5294 24.6569 55.2108 24.6569V20.5312C37.2491 20.5312 22.6914 35.0969 22.6914 53.0628H26.8171ZM55.2108 24.6569H88.7138V20.5312H55.2108V24.6569ZM274.35 22.6051V22.5938H270.224V22.6051H274.35ZM272.287 20.5309H268.688V24.6566H272.287V20.5309ZM266.625 22.5938V26.1957H270.75V22.5938H266.625ZM270.75 26.1957V25.9197H266.625V26.1957H270.75ZM270.75 25.9197C270.75 25.22 271.316 24.6566 272.01 24.6566V20.5309C269.033 20.5309 266.625 22.9457 266.625 25.9197H270.75ZM272.01 24.6566C272.047 24.6566 272.083 24.6581 272.118 24.661L272.456 20.5492C272.309 20.5371 272.16 20.5309 272.01 20.5309V24.6566Z" fill="#EFF2F6" mask="url(#path-3-inside-1)" />
    <path d="M26.8173 610.674H334.183V667.426C334.183 682.806 321.715 695.275 306.334 695.275H54.6659C39.2855 695.275 26.8173 682.806 26.8173 667.426V610.674Z" fill="white" />
    <rect x="26.8176" y="609.642" width="309.429" height="1.03168" fill="#DFE4EA" />
    <path opacity="0.4" d="M266.405 658.546L267.231 656.164H270.748L271.569 658.546H273.011L269.772 649.544H268.203L264.963 658.546H266.405ZM267.627 655.021L268.954 651.179H269.025L270.352 655.021H267.627ZM276.58 658.682C278.175 658.682 279.208 657.724 279.353 656.41H278.074C277.907 657.139 277.34 657.57 276.588 657.57C275.476 657.57 274.76 656.643 274.76 655.17C274.76 653.724 275.489 652.814 276.588 652.814C277.423 652.814 277.933 653.342 278.074 653.975H279.353C279.212 652.612 278.1 651.707 276.566 651.707C274.663 651.707 273.432 653.14 273.432 655.201C273.432 657.236 274.619 658.682 276.58 658.682ZM283.241 658.682C284.837 658.682 285.869 657.724 286.015 656.41H284.735C284.568 657.139 284.001 657.57 283.25 657.57C282.138 657.57 281.421 656.643 281.421 655.17C281.421 653.724 282.151 652.814 283.25 652.814C284.085 652.814 284.595 653.342 284.735 653.975H286.015C285.874 652.612 284.762 651.707 283.228 651.707C281.325 651.707 280.094 653.14 280.094 655.201C280.094 657.236 281.281 658.682 283.241 658.682ZM289.903 658.682C291.806 658.682 293.05 657.289 293.05 655.201C293.05 653.1 291.806 651.707 289.903 651.707C288 651.707 286.756 653.1 286.756 655.201C286.756 657.289 288 658.682 289.903 658.682ZM289.907 657.579C288.663 657.579 288.083 656.493 288.083 655.197C288.083 653.904 288.663 652.806 289.907 652.806C291.142 652.806 291.722 653.904 291.722 655.197C291.722 656.493 291.142 657.579 289.907 657.579ZM298.432 655.746C298.437 656.893 297.584 657.438 296.846 657.438C296.032 657.438 295.47 656.849 295.47 655.931V651.795H294.156V656.089C294.156 657.763 295.074 658.634 296.371 658.634C297.386 658.634 298.076 658.097 298.388 657.377H298.459V658.546H299.751V651.795H298.432V655.746ZM302.47 654.537C302.47 653.46 303.129 652.845 304.043 652.845C304.936 652.845 305.476 653.43 305.476 654.41V658.546H306.79V654.252C306.79 652.581 305.872 651.707 304.492 651.707C303.476 651.707 302.813 652.177 302.501 652.893H302.417V651.795H301.156V658.546H302.47V654.537ZM311.343 651.795H309.959V650.177H308.645V651.795H307.656V652.849H308.645V656.836C308.64 658.062 309.576 658.656 310.614 658.634C311.031 658.629 311.313 658.55 311.466 658.493L311.229 657.407C311.141 657.425 310.979 657.465 310.768 657.465C310.341 657.465 309.959 657.324 309.959 656.563V652.849H311.343V651.795Z" fill="#18214D" />
    <path fill-rule="evenodd" clip-rule="evenodd" d="M288.8 620.991C283.107 620.991 278.486 625.613 278.486 631.308C278.486 637.003 283.107 641.626 288.8 641.626C294.494 641.626 299.115 637.003 299.115 631.308C299.115 625.613 294.494 620.991 288.8 620.991ZM288.801 624.087C290.513 624.087 291.895 625.469 291.895 627.182C291.895 628.894 290.513 630.277 288.801 630.277C287.089 630.277 285.706 628.894 285.706 627.182C285.706 625.469 287.089 624.087 288.801 624.087Z" fill="#345DEE" />
    <path fill-rule="evenodd" clip-rule="evenodd" d="M282.687 639.62C283.154 636.664 285.713 634.404 288.799 634.404C291.885 634.404 294.444 636.664 294.911 639.62C295.547 639.152 296.127 638.612 296.639 638.013C295.556 634.719 292.455 632.34 288.799 632.34C285.143 632.34 282.043 634.719 280.959 638.013C281.472 638.612 282.051 639.151 282.687 639.62Z" fill="white" />
    <path opacity="0.4" d="M196.72 658.546H198.079V654.621H202.566V658.546H203.929V649.544H202.566V653.456H198.079V649.544H196.72V658.546ZM205.44 658.546H206.754V651.795H205.44V658.546ZM206.104 650.753C206.556 650.753 206.934 650.401 206.934 649.971C206.934 649.54 206.556 649.184 206.104 649.184C205.647 649.184 205.273 649.54 205.273 649.971C205.273 650.401 205.647 650.753 206.104 650.753ZM213.22 653.443C212.948 652.392 212.126 651.707 210.667 651.707C209.141 651.707 208.06 652.511 208.06 653.707C208.06 654.665 208.64 655.302 209.906 655.583L211.049 655.834C211.699 655.979 212.003 656.269 212.003 656.691C212.003 657.214 211.445 657.623 210.583 657.623C209.796 657.623 209.291 657.284 209.133 656.621L207.862 656.814C208.082 658.01 209.075 658.682 210.592 658.682C212.223 658.682 213.352 657.816 213.352 656.594C213.352 655.64 212.746 655.052 211.506 654.766L210.434 654.52C209.691 654.344 209.37 654.093 209.374 653.636C209.37 653.118 209.933 652.748 210.68 652.748C211.497 652.748 211.875 653.201 212.029 653.654L213.22 653.443ZM217.587 651.795H216.203V650.177H214.889V651.795H213.9V652.849H214.889V656.836C214.884 658.062 215.821 658.656 216.858 658.634C217.275 658.629 217.557 658.55 217.711 658.493L217.473 657.407C217.385 657.425 217.223 657.465 217.012 657.465C216.585 657.465 216.203 657.324 216.203 656.563V652.849H217.587V651.795ZM221.451 658.682C223.355 658.682 224.598 657.289 224.598 655.201C224.598 653.1 223.355 651.707 221.451 651.707C219.548 651.707 218.304 653.1 218.304 655.201C218.304 657.289 219.548 658.682 221.451 658.682ZM221.456 657.579C220.212 657.579 219.632 656.493 219.632 655.197C219.632 653.904 220.212 652.806 221.456 652.806C222.691 652.806 223.271 653.904 223.271 655.197C223.271 656.493 222.691 657.579 221.456 657.579ZM225.704 658.546H227.019V654.423C227.019 653.54 227.7 652.902 228.632 652.902C228.904 652.902 229.212 652.951 229.317 652.981V651.724C229.185 651.707 228.926 651.694 228.759 651.694C227.968 651.694 227.291 652.142 227.045 652.867H226.975V651.795H225.704V658.546ZM231.13 661.077C232.215 661.077 232.901 660.51 233.292 659.447L236.083 651.808L234.664 651.795L232.954 657.034H232.884L231.174 651.795H229.767L232.237 658.634L232.075 659.082C231.741 659.979 231.27 660.053 230.55 659.856L230.233 660.932C230.391 661.003 230.734 661.077 231.13 661.077Z" fill="#18214D" />
    <path fill-rule="evenodd" clip-rule="evenodd" d="M216.601 620.991C210.928 620.991 206.286 625.634 206.286 631.308C206.286 636.983 210.928 641.626 216.601 641.626C222.273 641.626 226.915 636.983 226.915 631.308C226.915 625.634 222.273 620.991 216.601 620.991ZM220.262 635.229L216.054 632.639C215.744 632.453 215.559 632.123 215.559 631.762V626.923C215.569 626.5 215.92 626.149 216.343 626.149C216.765 626.149 217.116 626.5 217.116 626.923V631.514L221.077 633.898C221.448 634.125 221.572 634.61 221.345 634.981C221.118 635.342 220.633 635.456 220.262 635.229Z" fill="#DFE4EA" />
    <path opacity="0.4" d="M135.551 652.471C135.244 650.546 133.736 649.421 131.833 649.421C129.503 649.421 127.785 651.166 127.785 654.045C127.785 656.924 129.495 658.669 131.833 658.669C133.811 658.669 135.257 657.429 135.551 655.649L134.18 655.645C133.947 656.796 132.98 657.429 131.842 657.429C130.299 657.429 129.134 656.247 129.134 654.045C129.134 651.861 130.294 650.661 131.846 650.661C132.993 650.661 133.956 651.307 134.18 652.471H135.551ZM138.675 658.695C139.791 658.695 140.42 658.128 140.67 657.623H140.723V658.546H142.006V654.063C142.006 652.098 140.459 651.707 139.387 651.707C138.165 651.707 137.04 652.199 136.6 653.43L137.835 653.711C138.028 653.232 138.521 652.77 139.404 652.77C140.252 652.77 140.688 653.214 140.688 653.979V654.01C140.688 654.489 140.195 654.48 138.982 654.621C137.703 654.77 136.393 655.104 136.393 656.638C136.393 657.966 137.391 658.695 138.675 658.695ZM138.96 657.64C138.217 657.64 137.681 657.306 137.681 656.656C137.681 655.953 138.305 655.702 139.066 655.601C139.492 655.544 140.503 655.43 140.692 655.241V656.111C140.692 656.911 140.055 657.64 138.96 657.64ZM143.396 658.546H144.71V654.423C144.71 653.54 145.391 652.902 146.323 652.902C146.595 652.902 146.903 652.951 147.009 652.981V651.724C146.877 651.707 146.617 651.694 146.45 651.694C145.659 651.694 144.982 652.142 144.736 652.867H144.666V651.795H143.396V658.546ZM150.07 658.678C151.301 658.678 151.785 657.926 152.022 657.495H152.132V658.546H153.415V649.544H152.101V652.889H152.022C151.785 652.471 151.336 651.707 150.079 651.707C148.449 651.707 147.249 652.995 147.249 655.183C147.249 657.368 148.431 658.678 150.07 658.678ZM150.36 657.557C149.187 657.557 148.576 656.524 148.576 655.17C148.576 653.83 149.174 652.823 150.36 652.823C151.508 652.823 152.123 653.759 152.123 655.17C152.123 656.59 151.494 657.557 150.36 657.557ZM159.989 653.443C159.716 652.392 158.894 651.707 157.435 651.707C155.91 651.707 154.829 652.511 154.829 653.707C154.829 654.665 155.409 655.302 156.675 655.583L157.818 655.834C158.468 655.979 158.771 656.269 158.771 656.691C158.771 657.214 158.213 657.623 157.352 657.623C156.565 657.623 156.06 657.284 155.901 656.621L154.631 656.814C154.851 658.01 155.844 658.682 157.361 658.682C158.991 658.682 160.121 657.816 160.121 656.594C160.121 655.64 159.514 655.052 158.275 654.766L157.202 654.52C156.459 654.344 156.139 654.093 156.143 653.636C156.139 653.118 156.701 652.748 157.448 652.748C158.266 652.748 158.644 653.201 158.798 653.654L159.989 653.443Z" fill="#18214D" />
    <path fill-rule="evenodd" clip-rule="evenodd" d="M136.148 623.054C135.009 623.054 134.086 623.978 134.086 625.117V628.213H154.714V625.117C154.714 623.978 153.791 623.054 152.651 623.054H136.148ZM154.714 630.277H134.085V637.499C134.085 638.638 135.009 639.562 136.148 639.562H152.651C153.79 639.562 154.714 638.638 154.714 637.499V630.277Z" fill="#DFE4EA" />
    <path opacity="0.4" d="M51.6217 658.546L52.448 656.164H55.9642L56.7862 658.546H58.2278L54.9885 649.544H53.4194L50.18 658.546H51.6217ZM52.8436 655.021L54.171 651.179H54.2413L55.5687 655.021H52.8436ZM61.7962 658.682C63.3917 658.682 64.4246 657.724 64.5696 656.41H63.2906C63.1236 657.139 62.5566 657.57 61.805 657.57C60.693 657.57 59.9766 656.643 59.9766 655.17C59.9766 653.724 60.7062 652.814 61.805 652.814C62.6401 652.814 63.15 653.342 63.2906 653.975H64.5696C64.429 652.612 63.317 651.707 61.783 651.707C59.8799 651.707 58.6492 653.14 58.6492 655.201C58.6492 657.236 59.8359 658.682 61.7962 658.682ZM68.7655 651.795H67.3809V650.177H66.0668V651.795H65.0778V652.849H66.0668V656.836C66.0624 658.062 66.9986 658.656 68.0358 658.634C68.4534 658.629 68.7347 658.55 68.8885 658.493L68.6512 657.407C68.5633 657.425 68.4007 657.465 68.1897 657.465C67.7633 657.465 67.3809 657.324 67.3809 656.563V652.849H68.7655V651.795ZM69.8582 658.546H71.1724V651.795H69.8582V658.546ZM70.5219 650.753C70.9746 650.753 71.3526 650.401 71.3526 649.971C71.3526 649.54 70.9746 649.184 70.5219 649.184C70.0648 649.184 69.6912 649.54 69.6912 649.971C69.6912 650.401 70.0648 650.753 70.5219 650.753ZM75.4232 658.682C77.3263 658.682 78.5702 657.289 78.5702 655.201C78.5702 653.1 77.3263 651.707 75.4232 651.707C73.52 651.707 72.2761 653.1 72.2761 655.201C72.2761 657.289 73.52 658.682 75.4232 658.682ZM75.4276 657.579C74.1837 657.579 73.6035 656.493 73.6035 655.197C73.6035 653.904 74.1837 652.806 75.4276 652.806C76.6626 652.806 77.2428 653.904 77.2428 655.197C77.2428 656.493 76.6626 657.579 75.4276 657.579ZM80.9903 654.537C80.9903 653.46 81.6496 652.845 82.5638 652.845C83.4561 652.845 83.9967 653.43 83.9967 654.41V658.546H85.3109V654.252C85.3109 652.581 84.3923 651.707 83.0121 651.707C81.9968 651.707 81.3331 652.177 81.0211 652.893H80.9376V651.795H79.6761V658.546H80.9903V654.537ZM91.7714 653.443C91.4989 652.392 90.6769 651.707 89.2177 651.707C87.6925 651.707 86.6113 652.511 86.6113 653.707C86.6113 654.665 87.1915 655.302 88.4573 655.583L89.6001 655.834C90.2506 655.979 90.5539 656.269 90.5539 656.691C90.5539 657.214 89.9957 657.623 89.1342 657.623C88.3474 657.623 87.842 657.284 87.6838 656.621L86.4135 656.814C86.6333 658.01 87.6266 658.682 89.143 658.682C90.7736 658.682 91.9032 657.816 91.9032 656.594C91.9032 655.64 91.2967 655.052 90.0572 654.766L88.9848 654.52C88.242 654.344 87.9211 654.093 87.9255 653.636C87.9211 653.118 88.4837 652.748 89.2309 652.748C90.0484 652.748 90.4264 653.201 90.5802 653.654L91.7714 653.443Z" fill="#18214D" />
    <path fill-rule="evenodd" clip-rule="evenodd" d="M79.42 622.023H64.98C63.8454 622.023 62.9171 622.951 62.9171 624.086V638.53C62.9171 639.665 63.8454 640.594 64.98 640.594H79.42C80.5546 640.594 81.4828 639.665 81.4828 638.53V624.086C81.4828 622.951 80.5546 622.023 79.42 622.023ZM68.0744 636.467C67.5071 636.467 67.043 636.003 67.043 635.435V630.277C67.043 629.709 67.5071 629.245 68.0744 629.245C68.6417 629.245 69.1058 629.709 69.1058 630.277V635.435C69.1058 636.003 68.6417 636.467 68.0744 636.467ZM72.2001 636.467C71.6328 636.467 71.1687 636.002 71.1687 635.435V627.181C71.1687 626.614 71.6328 626.15 72.2001 626.15C72.7674 626.15 73.2316 626.614 73.2316 627.181V635.435C73.2316 636.002 72.7674 636.467 72.2001 636.467ZM76.3258 636.467C75.7586 636.467 75.2944 636.003 75.2944 635.435V633.372C75.2944 632.804 75.7586 632.34 76.3258 632.34C76.8931 632.34 77.3573 632.804 77.3573 633.372V635.435C77.3573 636.003 76.8931 636.467 76.3258 636.467Z" fill="#DFE4EA" />
    <rect x="45.3832" y="534.327" width="270.234" height="61.9032" rx="10.3143" fill="#EFF2F6" />
    <rect x="61.8861" y="550.835" width="51.5714" height="28.8881" rx="5.15714" fill="white" />
    <path d="M83.1133 573.233C87.4315 573.233 90.932 569.605 90.932 565.13C90.932 560.654 87.4315 557.026 83.1133 557.026C78.7952 557.026 75.2947 560.654 75.2947 565.13C75.2947 569.605 78.7952 573.233 83.1133 573.233Z" fill="#EE0005" />
    <path d="M92.8276 573.234C97.1458 573.234 100.646 569.605 100.646 565.13C100.646 560.654 97.1458 557.026 92.8276 557.026C88.5095 557.026 85.009 560.654 85.009 565.13C85.009 569.605 88.5095 573.234 92.8276 573.234Z" fill="#F9A000" />
    <path d="M85.009 565.13C85.009 567.703 86.1662 569.996 87.9705 571.48C89.7748 569.996 90.9321 567.703 90.9321 565.13C90.9321 562.557 89.7748 560.264 87.9705 558.779C86.1663 560.264 85.009 562.557 85.009 565.13Z" fill="#FF6300" />
    <path opacity="0.4" d="M126.824 573.218V582.22H128.116V575.702H128.199L130.854 582.207H131.927L134.581 575.706H134.665V582.22H135.957V573.218H134.309L131.443 580.216H131.338L128.472 573.218H126.824ZM139.43 582.369C140.546 582.369 141.175 581.802 141.425 581.297H141.478V582.22H142.761V577.737C142.761 575.772 141.214 575.381 140.142 575.381C138.92 575.381 137.795 575.873 137.355 577.104L138.59 577.385C138.784 576.906 139.276 576.445 140.159 576.445C141.008 576.445 141.443 576.888 141.443 577.653V577.684C141.443 578.163 140.951 578.154 139.738 578.295C138.458 578.444 137.149 578.778 137.149 580.312C137.149 581.64 138.146 582.369 139.43 582.369ZM139.716 581.315C138.973 581.315 138.437 580.98 138.437 580.33C138.437 579.627 139.061 579.376 139.821 579.275C140.247 579.218 141.258 579.104 141.447 578.915V579.785C141.447 580.585 140.81 581.315 139.716 581.315ZM149.21 577.117C148.937 576.067 148.115 575.381 146.656 575.381C145.131 575.381 144.05 576.185 144.05 577.381C144.05 578.339 144.63 578.976 145.896 579.258L147.039 579.508C147.689 579.653 147.992 579.943 147.992 580.365C147.992 580.888 147.434 581.297 146.573 581.297C145.786 581.297 145.28 580.959 145.122 580.295L143.852 580.488C144.072 581.684 145.065 582.356 146.581 582.356C148.212 582.356 149.342 581.49 149.342 580.268C149.342 579.315 148.735 578.726 147.496 578.44L146.423 578.194C145.68 578.018 145.36 577.768 145.364 577.31C145.36 576.792 145.922 576.423 146.669 576.423C147.487 576.423 147.865 576.875 148.019 577.328L149.21 577.117ZM153.577 575.469H152.193V573.851H150.878V575.469H149.889V576.524H150.878V580.51C150.874 581.736 151.81 582.33 152.848 582.308C153.265 582.303 153.546 582.224 153.7 582.167L153.463 581.082C153.375 581.099 153.212 581.139 153.001 581.139C152.575 581.139 152.193 580.998 152.193 580.238V576.524H153.577V575.469ZM157.507 582.356C158.979 582.356 160.021 581.631 160.32 580.532L159.076 580.308C158.839 580.945 158.267 581.271 157.52 581.271C156.395 581.271 155.639 580.541 155.604 579.24H160.404V578.774C160.404 576.335 158.944 575.381 157.415 575.381C155.534 575.381 154.294 576.814 154.294 578.888C154.294 580.985 155.516 582.356 157.507 582.356ZM155.608 578.255C155.661 577.297 156.355 576.467 157.424 576.467C158.443 576.467 159.111 577.223 159.116 578.255H155.608ZM161.501 582.22H162.815V578.097C162.815 577.214 163.496 576.576 164.428 576.576C164.7 576.576 165.008 576.625 165.114 576.656V575.398C164.982 575.381 164.722 575.368 164.555 575.368C163.764 575.368 163.087 575.816 162.841 576.541H162.771V575.469H161.501V582.22ZM168.492 582.356C170.087 582.356 171.12 581.398 171.265 580.084H169.986C169.819 580.813 169.252 581.244 168.501 581.244C167.389 581.244 166.672 580.317 166.672 578.844C166.672 577.398 167.402 576.489 168.501 576.489C169.336 576.489 169.846 577.016 169.986 577.649H171.265C171.125 576.286 170.013 575.381 168.479 575.381C166.576 575.381 165.345 576.814 165.345 578.875C165.345 580.91 166.532 582.356 168.492 582.356ZM174.274 582.369C175.391 582.369 176.019 581.802 176.27 581.297H176.323V582.22H177.606V577.737C177.606 575.772 176.059 575.381 174.986 575.381C173.765 575.381 172.639 575.873 172.2 577.104L173.435 577.385C173.628 576.906 174.121 576.445 175.004 576.445C175.852 576.445 176.287 576.888 176.287 577.653V577.684C176.287 578.163 175.795 578.154 174.582 578.295C173.303 578.444 171.993 578.778 171.993 580.312C171.993 581.64 172.991 582.369 174.274 582.369ZM174.56 581.315C173.817 581.315 173.281 580.98 173.281 580.33C173.281 579.627 173.905 579.376 174.666 579.275C175.092 579.218 176.103 579.104 176.292 578.915V579.785C176.292 580.585 175.655 581.315 174.56 581.315ZM178.995 582.22H180.31V578.097C180.31 577.214 180.991 576.576 181.923 576.576C182.195 576.576 182.503 576.625 182.608 576.656V575.398C182.477 575.381 182.217 575.368 182.05 575.368C181.259 575.368 180.582 575.816 180.336 576.541H180.266V575.469H178.995V582.22ZM185.67 582.352C186.901 582.352 187.384 581.6 187.622 581.169H187.732V582.22H189.015V573.218H187.701V576.563H187.622C187.384 576.146 186.936 575.381 185.679 575.381C184.048 575.381 182.848 576.669 182.848 578.858C182.848 581.042 184.031 582.352 185.67 582.352ZM185.96 581.231C184.787 581.231 184.176 580.198 184.176 578.844C184.176 577.504 184.774 576.497 185.96 576.497C187.107 576.497 187.723 577.433 187.723 578.844C187.723 580.264 187.094 581.231 185.96 581.231ZM195.84 580.567C196.908 580.567 197.774 579.701 197.774 578.633C197.774 577.565 196.908 576.699 195.84 576.699C194.772 576.699 193.906 577.565 193.906 578.633C193.906 579.701 194.772 580.567 195.84 580.567ZM205.674 582.343C207.555 582.361 208.804 581.007 208.799 579.28C208.804 577.557 207.551 576.321 205.991 576.321C205.041 576.321 204.219 576.779 203.758 577.539H203.692C203.696 575.495 204.47 574.282 205.788 574.282C206.654 574.282 207.199 574.81 207.384 575.557H208.724C208.518 574.133 207.397 573.095 205.788 573.095C203.696 573.095 202.391 574.893 202.391 578.022C202.386 581.337 204.074 582.33 205.674 582.343ZM205.67 581.2C204.624 581.2 203.859 580.321 203.859 579.31C203.863 578.304 204.663 577.425 205.701 577.425C206.729 577.425 207.485 578.255 207.481 579.297C207.485 580.361 206.698 581.2 205.67 581.2ZM210.342 582.22H211.762L215.678 574.423V573.218H209.727V574.383H214.272V574.449L210.342 582.22ZM219.706 582.343C221.578 582.343 222.901 581.279 222.91 579.82C222.901 578.686 222.106 577.732 221.099 577.552V577.499C221.974 577.288 222.567 576.467 222.576 575.495C222.567 574.119 221.354 573.095 219.706 573.095C218.04 573.095 216.827 574.119 216.836 575.495C216.827 576.462 217.421 577.288 218.313 577.499V577.552C217.289 577.732 216.493 578.686 216.502 579.82C216.493 581.279 217.816 582.343 219.706 582.343ZM219.706 581.231C218.581 581.231 217.869 580.633 217.878 579.732C217.869 578.796 218.642 578.128 219.706 578.128C220.752 578.128 221.526 578.796 221.534 579.732C221.526 580.633 220.818 581.231 219.706 581.231ZM219.706 577.042C218.796 577.042 218.15 576.467 218.159 575.609C218.15 574.766 218.774 574.207 219.706 574.207C220.62 574.207 221.244 574.766 221.253 575.609C221.244 576.467 220.603 577.042 219.706 577.042ZM227.117 573.095C225.227 573.078 223.992 574.436 223.992 576.141C223.996 577.86 225.24 579.099 226.801 579.099C227.754 579.099 228.572 578.633 229.033 577.877H229.104C229.099 579.948 228.321 581.156 227.003 581.156C226.141 581.156 225.587 580.629 225.412 579.86H224.071C224.269 581.315 225.394 582.343 227.003 582.343C229.095 582.343 230.405 580.545 230.405 577.394C230.4 574.106 228.721 573.109 227.117 573.095ZM227.121 574.238C228.163 574.238 228.932 575.122 228.932 576.111C228.937 577.113 228.124 577.992 227.095 577.992C226.062 577.992 225.315 577.165 225.311 576.124C225.311 575.078 226.089 574.238 227.121 574.238Z" fill="#18214D" />
    <path d="M126.409 552.653H129.655V561.56H131.542V552.653H134.788V551.058H126.409V552.653ZM135.805 561.56H137.662V553.684H135.805V561.56ZM136.739 552.566C137.328 552.566 137.81 552.115 137.81 551.561C137.81 551.002 137.328 550.551 136.739 550.551C136.144 550.551 135.662 551.002 135.662 551.561C135.662 552.115 136.144 552.566 136.739 552.566ZM140.911 556.945C140.911 555.807 141.598 555.15 142.578 555.15C143.537 555.15 144.111 555.781 144.111 556.832V561.56H145.967V556.545C145.972 554.658 144.895 553.581 143.27 553.581C142.091 553.581 141.28 554.145 140.921 555.022H140.829V553.684H139.055V561.56H140.911V556.945ZM147.338 561.56H149.195V558.914L149.872 558.191L152.282 561.56H154.502L151.272 557.083L154.323 553.684H152.154L149.323 556.848H149.195V551.058H147.338V561.56ZM158.155 561.714C160.463 561.714 161.929 560.088 161.929 557.653C161.929 555.212 160.463 553.581 158.155 553.581C155.848 553.581 154.381 555.212 154.381 557.653C154.381 560.088 155.848 561.714 158.155 561.714ZM158.166 560.227C156.889 560.227 156.263 559.088 156.263 557.648C156.263 556.207 156.889 555.053 158.166 555.053C159.422 555.053 160.047 556.207 160.047 557.648C160.047 559.088 159.422 560.227 158.166 560.227ZM166.979 553.684H165.343V553.063C165.343 552.448 165.599 552.104 166.292 552.104C166.584 552.104 166.83 552.171 166.984 552.217L167.358 550.781C167.117 550.699 166.589 550.566 165.948 550.566C164.579 550.566 163.487 551.351 163.487 552.94V553.684H162.323V555.119H163.487V561.56H165.343V555.119H166.979V553.684ZM171.906 553.684H170.27V553.063C170.27 552.448 170.527 552.104 171.219 552.104C171.511 552.104 171.757 552.171 171.911 552.217L172.286 550.781C172.045 550.699 171.516 550.566 170.875 550.566C169.506 550.566 168.414 551.351 168.414 552.94V553.684H167.25V555.119H168.414V561.56H170.27V555.119H171.906V553.684ZM183.028 554.412H184.966C184.643 552.35 182.858 550.915 180.536 550.915C177.787 550.915 175.726 552.935 175.726 556.319C175.726 559.642 177.695 561.704 180.592 561.704C183.192 561.704 185.053 560.032 185.053 557.324V556.063H180.792V557.55H183.212C183.182 559.047 182.182 559.996 180.602 559.996C178.843 559.996 177.638 558.678 177.638 556.299C177.638 553.935 178.864 552.622 180.561 552.622C181.828 552.622 182.689 553.299 183.028 554.412ZM189.731 561.714C192.038 561.714 193.505 560.088 193.505 557.653C193.505 555.212 192.038 553.581 189.731 553.581C187.423 553.581 185.957 555.212 185.957 557.653C185.957 560.088 187.423 561.714 189.731 561.714ZM189.741 560.227C188.464 560.227 187.839 559.088 187.839 557.648C187.839 556.207 188.464 555.053 189.741 555.053C190.997 555.053 191.623 556.207 191.623 557.648C191.623 559.088 190.997 560.227 189.741 560.227ZM196.421 551.058H194.565V561.56H196.421V551.058ZM200.737 561.699C202.091 561.699 202.701 560.893 202.993 560.319H203.106V561.56H204.931V551.058H203.07V554.986H202.993C202.711 554.417 202.132 553.581 200.742 553.581C198.922 553.581 197.491 555.007 197.491 557.632C197.491 560.227 198.881 561.699 200.737 561.699ZM201.255 560.176C200.029 560.176 199.383 559.099 199.383 557.622C199.383 556.155 200.019 555.104 201.255 555.104C202.45 555.104 203.106 556.094 203.106 557.622C203.106 559.15 202.439 560.176 201.255 560.176Z" fill="#18214D" />
  </symbol>
</svg>