<svg display="none" xmlns="http://www.w3.org/2000/svg">
  <symbol id="list" viewBox="0 0 24 26">
    <path d="M22 25.5H2C1.66848 25.5 1.35054 25.3683 1.11612 25.1339C0.881696 24.8995 0.75 24.5815 0.75 24.25V1.75C0.75 1.41848 0.881696 1.10054 1.11612 0.866116C1.35054 0.631696 1.66848 0.5 2 0.5H22C22.3315 0.5 22.6495 0.631696 22.8839 0.866116C23.1183 1.10054 23.25 1.41848 23.25 1.75V24.25C23.25 24.5815 23.1183 24.8995 22.8839 25.1339C22.6495 25.3683 22.3315 25.5 22 25.5ZM7 6.75V9.25H17V6.75H7ZM7 11.75V14.25H17V11.75H7ZM7 16.75V19.25H13.25V16.75H7Z" fill="white" />
  </symbol>
</svg>