<svg display="none" xmlns="http://www.w3.org/2000/svg">
  <symbol id="logo" viewBox="0 0 79 55">
    <!-- <rect x="1" y="1" width="76.5714" height="53" class="ff" rx="3.69231" fill="none" stroke-width="2" /> -->
    <path d="M19.0367 24.0217C21.8207 24.0217 23.7769 22.7237 24.2472 20.5794L21.8395 20.1655C21.5009 21.4823 20.5416 22.1782 19.0367 22.1782C17.1557 22.1782 15.9895 20.9932 15.9895 18.9993C15.9895 17.043 17.1181 15.8768 18.9991 15.8768C20.5228 15.8768 21.5009 16.5916 21.783 17.8895L24.266 17.5321C23.8146 15.2937 21.9523 14.0522 19.0744 14.0522C15.6321 14.0522 13.4689 15.952 13.4689 19.0181C13.4689 22.0654 15.6509 24.0217 19.0367 24.0217Z"  stroke="none"/>
    <path d="M32.1898 24.0217C35.5192 24.0217 37.7953 22.1218 37.7953 19.0369C37.7953 15.9332 35.5192 14.0522 32.1898 14.0522C28.8416 14.0522 26.5656 15.9332 26.5656 19.0369C26.5656 22.1218 28.8416 24.0217 32.1898 24.0217ZM32.1898 22.2347C30.2712 22.2347 29.0861 21.0872 29.0861 19.0369C29.0861 16.9678 30.2712 15.8392 32.1898 15.8392C34.0897 15.8392 35.2747 16.9678 35.2747 19.0369C35.2747 21.0872 34.0897 22.2347 32.1898 22.2347Z"  stroke="none"/>
    <path d="M44.8804 24.0217C46.7238 24.0217 48.0782 23.2692 48.8306 21.9713V23.7395H51.1631V10.1021H48.7365V15.7828C47.9277 14.6165 46.705 14.0522 45.0309 14.0522C42.1341 14.0522 40.1402 16.0837 40.1402 19.0369C40.1402 22.009 42.0965 24.0217 44.8804 24.0217ZM45.7081 22.2347C43.8459 22.2347 42.6796 21.012 42.6796 19.0181C42.6796 17.0242 43.7894 15.8392 45.6705 15.8392C47.5327 15.8392 48.793 17.0054 48.793 18.83V19.2815C48.793 21.0684 47.5515 22.2347 45.7081 22.2347Z"  stroke="none"/>
    <path d="M65.0618 18.7736C65.0618 15.7639 63.1055 14.0522 59.7385 14.0522C56.4091 14.0522 54.2835 15.9332 54.2835 19.131C54.2835 22.2347 56.3903 24.0217 59.8325 24.0217C62.2214 24.0217 63.9708 23.1188 64.9113 21.4635L63.0115 20.5982C62.4284 21.6516 61.3562 22.2347 59.9266 22.2347C57.9703 22.2347 56.7477 21.2189 56.6536 19.6389H65.0618V18.7736ZM62.6541 18.1152H56.6536C56.7477 16.554 57.8763 15.5946 59.7009 15.5946C61.4502 15.5946 62.6353 16.4787 62.6541 18.0212V18.1152Z"  stroke="none"/>
    <path d="M19.9393 43.1033C22.836 43.1033 24.7923 41.0718 24.7923 38.0997C24.7923 35.1465 22.9113 33.1338 20.0709 33.1338C18.3028 33.1338 16.9108 33.8674 16.196 35.0149V29.1837H13.7695V42.8211H15.8574L16.102 41.2034C16.7791 42.3321 18.1147 43.1033 19.9393 43.1033ZM19.1869 41.3163C17.3058 41.3163 16.1208 40.1313 16.1208 38.3443V37.874C16.1208 36.0871 17.3623 34.9208 19.2245 34.9208C21.1431 34.9208 22.2529 36.1623 22.2529 38.0997C22.2529 40.0748 21.0867 41.3163 19.1869 41.3163Z"  stroke="none"/>
    <path d="M31.6175 43.1033C33.3669 43.1033 34.8529 42.2568 35.4548 40.8272V42.8211H37.8061V33.416H35.3796V38.1374C35.3796 39.8115 34.3826 41.2411 32.3887 41.2411C31.0344 41.2411 29.9998 40.5075 29.9998 38.5888V33.416H27.5733V39.0026C27.5733 41.6173 28.8712 43.1033 31.6175 43.1033Z"  stroke="none"/>
    <path d="M41.6847 31.8547H44.3369V29.4282H41.6847V31.8547ZM41.7975 42.8211H44.2241V33.416H41.7975V42.8211Z"  stroke="none"/>
    <path d="M50.7283 29.1837H48.3018V42.8211H50.7283V29.1837Z"  stroke="none"/>
    <path d="M58.6013 43.1033C60.4447 43.1033 61.799 42.3509 62.5514 41.053V42.8211H64.8839V29.1837H62.4574V34.8644C61.6485 33.6981 60.4259 33.1338 58.7518 33.1338C55.855 33.1338 53.8611 35.1653 53.8611 38.1186C53.8611 41.0906 55.8174 43.1033 58.6013 43.1033ZM59.4289 41.3163C57.5667 41.3163 56.4005 40.0936 56.4005 38.0997C56.4005 36.1059 57.5103 34.9208 59.3913 34.9208C61.2535 34.9208 62.5138 36.0871 62.5138 37.9116V38.3631C62.5138 40.1501 61.2723 41.3163 59.4289 41.3163Z"  stroke="none"/>
  </symbol>
</svg>
  