<svg display="none" xmlns="http://www.w3.org/2000/svg">
  <symbol id="openEye" viewBox="0 0 21 16">
    <path d="M10.5 0C15.733 0 20.0867 3.2592 21 7.56C20.0877 11.8608 15.733 15.12 10.5 15.12C5.26698 15.12 0.913254 11.8608 0 7.56C0.912284 3.2592 5.26698 0 10.5 0ZM10.5 13.44C12.4793 13.4396 14.3999 12.8577 15.9474 11.7895C17.4948 10.7214 18.5775 9.23015 19.0182 7.56C18.5759 5.89118 17.4925 4.4016 15.9452 3.33482C14.3979 2.26804 12.4782 1.68716 10.5 1.68716C8.5218 1.68716 6.60211 2.26804 5.05481 3.33482C3.5075 4.4016 2.42412 5.89118 1.98179 7.56C2.4225 9.23015 3.50518 10.7214 5.05264 11.7895C6.6001 12.8577 8.52067 13.4396 10.5 13.44ZM10.5 11.34C9.34172 11.34 8.23087 10.9418 7.41184 10.2329C6.59281 9.52398 6.13268 8.56252 6.13268 7.56C6.13268 6.55748 6.59281 5.59602 7.41184 4.88714C8.23087 4.17825 9.34172 3.78 10.5 3.78C11.6583 3.78 12.7691 4.17825 13.5882 4.88714C14.4072 5.59602 14.8673 6.55748 14.8673 7.56C14.8673 8.56252 14.4072 9.52398 13.5882 10.2329C12.7691 10.9418 11.6583 11.34 10.5 11.34ZM10.5 9.66C11.1435 9.66 11.7606 9.43875 12.2156 9.04492C12.6707 8.6511 12.9263 8.11695 12.9263 7.56C12.9263 7.00305 12.6707 6.4689 12.2156 6.07508C11.7606 5.68125 11.1435 5.46 10.5 5.46C9.85651 5.46 9.23937 5.68125 8.78436 6.07508C8.32934 6.4689 8.07371 7.00305 8.07371 7.56C8.07371 8.11695 8.32934 8.6511 8.78436 9.04492C9.23937 9.43875 9.85651 9.66 10.5 9.66Z" />
  </symbol>
</svg>