<svg display="none" xmlns="http://www.w3.org/2000/svg">
    <symbol id="premium" viewBox="0 0 18 18">
        <path fill-rule="evenodd" clip-rule="evenodd" d="M8.99989 0.683258C4.40823 0.683258 0.683228 4.40826 0.683228 8.99992C0.683228 13.5916 4.40823 17.3166 8.99989 17.3166C13.5916 17.3166 17.3166 13.5916 17.3166 8.99992C17.3166 4.40826 13.5916 0.683258 8.99989 0.683258ZM8.56653 13.8998V10.4498H6.34986C6.04153 10.4498 5.83319 10.1165 5.98319 9.84147L9.04986 3.86647C9.24153 3.4748 9.83319 3.61647 9.83319 4.05814V7.5498H11.9499C12.2582 7.5498 12.4582 7.8748 12.3249 8.1498L9.35819 14.0831C9.15819 14.4831 8.56653 14.3415 8.56653 13.8998Z" />
    </symbol>
</svg>