<svg display="none" xmlns="http://www.w3.org/2000/svg">
  <symbol id="profile" viewBox="0 0 20 20">
    <path d="M15.7631 16.91L15.4131 16.031C15.2361 15.585 14.9611 15.185 14.6091 14.859L14.5451 14.8C13.9911 14.286 13.2631 14 12.5071 14H7.49308C6.73708 14 6.00908 14.286 5.45408 14.799L5.39008 14.859C5.03808 15.185 4.76408 15.585 4.58608 16.031L4.23608 16.91" fill="none" stroke-width="1.5" stroke-linecap="round" stroke-linejoin="round"/>
    <path d="M12.4749 5.44713C13.8417 6.81397 13.8417 9.03004 12.4749 10.3969C11.108 11.7637 8.89197 11.7637 7.52513 10.3969C6.15829 9.03004 6.15829 6.81397 7.52513 5.44713C8.89197 4.08029 11.108 4.08029 12.4749 5.44713" fill="none" stroke-width="1.5" stroke-linecap="round" stroke-linejoin="round"/>
    <path d="M16.3639 3.63604C19.8787 7.15076 19.8787 12.8492 16.3639 16.3639C12.8492 19.8787 7.15074 19.8787 3.63604 16.3639C0.12132 12.8492 0.12132 7.15074 3.63604 3.63604C7.15076 0.12132 12.8492 0.12132 16.3639 3.63604" fill="none" stroke-width="1.5" stroke-linecap="round" stroke-linejoin="round"/>
  </symbol>
</svg>