<svg display="none" xmlns="http://www.w3.org/2000/svg">
  <symbol id="video" viewBox="0 0 13 13">
    <path d="M1.625 2.16288C1.625 1.86604 1.86604 1.625 2.16288 1.625H10.8371C11.134 1.625 11.375 1.86604 11.375 2.16288V10.8371C11.3749 10.9797 11.3181 11.1165 11.2173 11.2173C11.1165 11.3181 10.9797 11.3749 10.8371 11.375H2.16288C2.02027 11.3749 1.88354 11.3181 1.7827 11.2173C1.68186 11.1165 1.62514 10.9797 1.625 10.8371V2.16288ZM5.75358 4.55813C5.72098 4.53638 5.6831 4.52387 5.64395 4.52195C5.60481 4.52003 5.56588 4.52876 5.53131 4.54722C5.49674 4.56567 5.46782 4.59315 5.44763 4.62674C5.42744 4.66033 5.41674 4.69877 5.41667 4.73796V8.26204C5.41674 8.30123 5.42744 8.33967 5.44763 8.37326C5.46782 8.40685 5.49674 8.43433 5.53131 8.45278C5.56588 8.47124 5.60481 8.47997 5.64395 8.47805C5.6831 8.47613 5.72098 8.46363 5.75358 8.44188L8.39638 6.68038C8.4261 6.6606 8.45047 6.63378 8.46732 6.60231C8.48418 6.57085 8.493 6.5357 8.493 6.5C8.493 6.4643 8.48418 6.42915 8.46732 6.39769C8.45047 6.36622 8.4261 6.3394 8.39638 6.31962L5.75304 4.55813H5.75358Z" />
  </symbol>
</svg>