<svg display="none" xmlns="http://www.w3.org/2000/svg">
  <symbol id="youtube" viewBox="0 0 18 14">
    <path d="M16.9525 2.41492C17.3333 3.89992 17.3333 6.99992 17.3333 6.99992C17.3333 6.99992 17.3333 10.0999 16.9525 11.5849C16.7408 12.4058 16.1217 13.0516 15.3375 13.2699C13.9133 13.6666 8.99999 13.6666 8.99999 13.6666C8.99999 13.6666 4.08916 13.6666 2.66249 13.2699C1.87499 13.0483 1.25666 12.4033 1.04749 11.5849C0.666657 10.0999 0.666656 6.99992 0.666656 6.99992C0.666656 6.99992 0.666657 3.89992 1.04749 2.41492C1.25916 1.59409 1.87832 0.948252 2.66249 0.729918C4.08916 0.333252 8.99999 0.333252 8.99999 0.333252C8.99999 0.333252 13.9133 0.333252 15.3375 0.729918C16.125 0.951585 16.7433 1.59659 16.9525 2.41492ZM7.33332 9.91658L12.3333 6.99992L7.33332 4.08325V9.91658Z" />
  </symbol>
</svg>